<svg width="1200" height="630" viewBox="0 0 1200 630" fill="none" xmlns="http://www.w3.org/2000/svg">
<rect width="1200" height="630" fill="white"/>
<path d="M96.5625 188L75.4375 108.938L66.125 108V97H102.75V108L92.9375 109.438L103.625 153.688L105.562 161.812H105.938L108.25 153.688L126.25 97H139.688L158.375 155.25L160.562 162.438H160.938L162.812 155.25L173.875 109.438L163.5 108V97H199.438V108L190.75 108.938L169.375 188H152.875L135.625 134.812L133.438 127.312H133.062L130.625 135.062L113.188 188H96.5625ZM235.812 189.312C229.146 189.312 223.417 187.854 218.625 184.938C213.833 182.021 210.167 177.979 207.625 172.812C205.083 167.604 203.812 161.625 203.812 154.875V153.562C203.812 146.854 205.083 140.917 207.625 135.75C210.167 130.542 213.812 126.479 218.562 123.562C223.354 120.604 229.062 119.125 235.688 119.125C242.396 119.125 248.125 120.604 252.875 123.562C257.625 126.479 261.271 130.521 263.812 135.688C266.354 140.854 267.625 146.812 267.625 153.562V154.875C267.625 161.625 266.354 167.604 263.812 172.812C261.271 177.979 257.625 182.021 252.875 184.938C248.125 187.854 242.438 189.312 235.812 189.312ZM235.812 175.312C238.979 175.312 241.562 174.458 243.562 172.75C245.562 171.042 247.042 168.667 248 165.625C248.958 162.542 249.438 158.958 249.438 154.875V153.562C249.438 149.562 248.958 146.042 248 143C247.042 139.917 245.542 137.521 243.5 135.812C241.5 134.062 238.896 133.188 235.688 133.188C232.562 133.188 229.979 134.062 227.938 135.812C225.896 137.521 224.396 139.917 223.438 143C222.521 146.042 222.062 149.562 222.062 153.562V154.875C222.062 158.958 222.521 162.542 223.438 165.625C224.396 168.708 225.896 171.104 227.938 172.812C229.979 174.479 232.604 175.312 235.812 175.312ZM277.188 188V177.062L285.938 175.188V133.25L276.25 131.375V120.375H302.938L303.625 128.75L303.75 130.25C305.417 126.583 307.479 123.812 309.938 121.938C312.396 120.062 315.333 119.125 318.75 119.125C319.833 119.125 321.021 119.229 322.312 119.438C323.604 119.604 324.75 119.833 325.75 120.125L323.812 136.938L314.75 136.438C312.167 136.312 310.062 136.75 308.438 137.75C306.854 138.75 305.438 140.188 304.188 142.062V175.188L312.938 177.062V188H277.188ZM355.938 189.312C350.562 189.312 345.938 187.938 342.062 185.188C338.229 182.396 335.292 178.521 333.25 173.562C331.208 168.562 330.188 162.729 330.188 156.062V154.75C330.188 147.625 331.208 141.396 333.25 136.062C335.333 130.729 338.292 126.583 342.125 123.625C345.958 120.625 350.542 119.125 355.875 119.125C359.583 119.125 362.833 119.875 365.625 121.375C368.417 122.833 370.833 124.917 372.875 127.625V103.375L363.125 101.5V90.5H372.875H391.125V175.188L399.875 177.062V188H375.312L373.938 179.75C371.812 182.875 369.271 185.25 366.312 186.875C363.396 188.5 359.938 189.312 355.938 189.312ZM361.375 175.125C363.917 175.125 366.146 174.583 368.062 173.5C369.979 172.417 371.583 170.854 372.875 168.812V140.125C371.625 137.958 370.042 136.292 368.125 135.125C366.208 133.917 364 133.312 361.5 133.312C358.458 133.312 355.958 134.229 354 136.062C352.083 137.854 350.667 140.354 349.75 143.562C348.875 146.771 348.438 150.5 348.438 154.75V156.062C348.438 161.979 349.438 166.646 351.438 170.062C353.438 173.438 356.75 175.125 361.375 175.125ZM404.688 188V177.062L413.5 175.188V103.375L403.75 101.5V90.5H431.75V175.188L440.562 177.062V188H404.688ZM477.688 189.312C471.229 189.312 465.583 187.896 460.75 185.062C455.917 182.188 452.167 178.25 449.5 173.25C446.875 168.25 445.562 162.542 445.562 156.125V153.625C445.562 146.917 446.812 140.979 449.312 135.812C451.812 130.604 455.333 126.521 459.875 123.562C464.458 120.562 469.854 119.083 476.062 119.125C482.188 119.125 487.333 120.333 491.5 122.75C495.667 125.167 498.833 128.646 501 133.188C503.167 137.729 504.25 143.229 504.25 149.688V159.625H464.5L464.375 160C464.625 162.958 465.354 165.604 466.562 167.938C467.812 170.229 469.562 172.042 471.812 173.375C474.062 174.667 476.792 175.312 480 175.312C483.333 175.312 486.438 174.896 489.312 174.062C492.229 173.188 495.062 171.917 497.812 170.25L502.75 181.5C499.958 183.75 496.438 185.625 492.188 187.125C487.979 188.583 483.146 189.312 477.688 189.312ZM464.625 147.562H487.188V145.938C487.188 143.188 486.812 140.833 486.062 138.875C485.354 136.875 484.188 135.333 482.562 134.25C480.979 133.167 478.917 132.625 476.375 132.625C473.958 132.625 471.917 133.271 470.25 134.562C468.583 135.812 467.271 137.542 466.312 139.75C465.396 141.958 464.771 144.458 464.438 147.25L464.625 147.562Z" fill="black"/>
<path d="M95.9375 337.312C92.7708 337.312 89.5208 337 86.1875 336.375C82.8958 335.792 79.9375 334.875 77.3125 333.625L79.1875 324.312C81.7292 325.521 84.3125 326.396 86.9375 326.938C89.6042 327.438 92.6042 327.688 95.9375 327.688C101.854 327.688 106.521 325.438 109.938 320.938C113.396 316.396 115.188 309.104 115.312 299.062L115.062 298.75C113.396 301.542 111.062 303.688 108.062 305.188C105.062 306.688 101.688 307.438 97.9375 307.438C92.0208 307.438 86.9167 306.208 82.625 303.75C78.3333 301.292 75.0208 297.729 72.6875 293.062C70.3958 288.396 69.25 282.75 69.25 276.125C69.25 269.792 70.5 264.188 73 259.312C75.5417 254.438 78.9375 250.625 83.1875 247.875C87.4792 245.083 92.2292 243.688 97.4375 243.688C103.771 243.688 109.229 245.021 113.812 247.688C118.396 250.312 121.917 254.25 124.375 259.5C126.875 264.708 128.125 271.188 128.125 278.938V295.375C128.125 304.833 126.792 312.667 124.125 318.875C121.458 325.083 117.708 329.708 112.875 332.75C108.083 335.792 102.438 337.312 95.9375 337.312ZM97.9375 297.75C102.479 297.75 106.25 296.771 109.25 294.812C112.292 292.854 114.479 290.354 115.812 287.312V277.688C115.812 269.646 114.271 263.583 111.188 259.5C108.146 255.417 103.688 253.375 97.8125 253.375C94.7708 253.375 92.0208 254.354 89.5625 256.312C87.1042 258.229 85.1458 260.896 83.6875 264.312C82.2708 267.729 81.5625 271.667 81.5625 276.125C81.5625 280.5 82.2083 284.312 83.5 287.562C84.8333 290.771 86.7292 293.271 89.1875 295.062C91.6458 296.854 94.5625 297.75 97.9375 297.75ZM168.062 337.312C164.896 337.312 161.646 337 158.312 336.375C155.021 335.792 152.062 334.875 149.438 333.625L151.312 324.312C153.854 325.521 156.438 326.396 159.062 326.938C161.729 327.438 164.729 327.688 168.062 327.688C173.979 327.688 178.646 325.438 182.062 320.938C185.521 316.396 187.312 309.104 187.438 299.062L187.188 298.75C185.521 301.542 183.188 303.688 180.188 305.188C177.188 306.688 173.812 307.438 170.062 307.438C164.146 307.438 159.042 306.208 154.75 303.75C150.458 301.292 147.146 297.729 144.812 293.062C142.521 288.396 141.375 282.75 141.375 276.125C141.375 269.792 142.625 264.188 145.125 259.312C147.667 254.438 151.062 250.625 155.312 247.875C159.604 245.083 164.354 243.688 169.562 243.688C175.896 243.688 181.354 245.021 185.938 247.688C190.521 250.312 194.042 254.25 196.5 259.5C199 264.708 200.25 271.188 200.25 278.938V295.375C200.25 304.833 198.917 312.667 196.25 318.875C193.583 325.083 189.833 329.708 185 332.75C180.208 335.792 174.562 337.312 168.062 337.312ZM170.062 297.75C174.604 297.75 178.375 296.771 181.375 294.812C184.417 292.854 186.604 290.354 187.938 287.312V277.688C187.938 269.646 186.396 263.583 183.312 259.5C180.271 255.417 175.812 253.375 169.938 253.375C166.896 253.375 164.146 254.354 161.688 256.312C159.229 258.229 157.271 260.896 155.812 264.312C154.396 267.729 153.688 271.667 153.688 276.125C153.688 280.5 154.333 284.312 155.625 287.562C156.958 290.771 158.854 293.271 161.312 295.062C163.771 296.854 166.688 297.75 170.062 297.75ZM243.625 337.312C237.667 337.312 232.458 336.333 228 334.375C223.583 332.375 220.146 329.458 217.688 325.625C215.229 321.75 214 317 214 311.375C214 306.25 215.542 301.729 218.625 297.812C221.708 293.896 225.875 291.021 231.125 289.188C226.583 287.438 223.021 284.792 220.438 281.25C217.854 277.667 216.562 273.5 216.562 268.75C216.562 263.417 217.688 258.896 219.938 255.188C222.188 251.438 225.333 248.583 229.375 246.625C233.417 244.667 238.125 243.688 243.5 243.688C248.833 243.688 253.542 244.667 257.625 246.625C261.708 248.583 264.896 251.438 267.188 255.188C269.521 258.896 270.688 263.417 270.688 268.75C270.688 273.5 269.354 277.667 266.688 281.25C264.021 284.792 260.417 287.438 255.875 289.188C261.125 291.021 265.312 293.896 268.438 297.812C271.604 301.729 273.188 306.25 273.188 311.375C273.188 317 271.938 321.75 269.438 325.625C266.938 329.458 263.458 332.375 259 334.375C254.583 336.333 249.458 337.312 243.625 337.312ZM243.625 327.688C247.042 327.688 250.042 327.021 252.625 325.688C255.25 324.354 257.292 322.458 258.75 320C260.208 317.5 260.938 314.542 260.938 311.125C260.938 307.792 260.188 304.833 258.688 302.25C257.188 299.667 255.125 297.646 252.5 296.188C249.875 294.729 246.875 294 243.5 294C240.125 294 237.146 294.729 234.562 296.188C231.979 297.646 229.958 299.667 228.5 302.25C227.042 304.792 226.312 307.75 226.312 311.125C226.312 316.292 227.875 320.354 231 323.312C234.167 326.229 238.375 327.688 243.625 327.688ZM243.625 284.312C246.5 284.312 249.042 283.688 251.25 282.438C253.5 281.146 255.25 279.354 256.5 277.062C257.75 274.771 258.375 272.083 258.375 269C258.375 266 257.729 263.333 256.438 261C255.146 258.625 253.375 256.771 251.125 255.438C248.917 254.062 246.375 253.375 243.5 253.375C239.125 253.375 235.583 254.812 232.875 257.688C230.208 260.521 228.875 264.292 228.875 269C228.875 273.625 230.229 277.333 232.938 280.125C235.646 282.917 239.208 284.312 243.625 284.312Z" fill="#444444"/>
<text x="64" y="566" fill="black" style="font-size: 128px; font-family: monospace; font-weight: bold;">5/6</text>
<rect x="717.5" y="67.5" width="415" height="495" rx="15.5" fill="#FAFAFA" stroke="#EAEAEA"/>
<rect x="733" y="83" width="64" height="64" rx="8" fill="#1EA896"/>
<rect x="893" y="83" width="64" height="64" rx="8" fill="#F3B61F"/>
<rect x="813" y="83" width="64" height="64" rx="8" fill="#1EA896"/>
<rect x="973" y="83" width="64" height="64" rx="8" fill="#EF2D56"/>
<rect x="1053" y="83" width="64" height="64" rx="8" fill="#D9D9D9"/>
<rect x="733" y="163" width="64" height="64" rx="8" fill="#D9D9D9"/>
<rect x="893" y="163" width="64" height="64" rx="8" fill="#D9D9D9"/>
<rect x="813" y="163" width="64" height="64" rx="8" fill="#D9D9D9"/>
<rect x="973" y="163" width="64" height="64" rx="8" fill="#D9D9D9"/>
<rect x="1053" y="163" width="64" height="64" rx="8" fill="#D9D9D9"/>
<rect x="733" y="243" width="64" height="64" rx="8" fill="#D9D9D9"/>
<rect x="893" y="243" width="64" height="64" rx="8" fill="#D9D9D9"/>
<rect x="813" y="243" width="64" height="64" rx="8" fill="#D9D9D9"/>
<rect x="973" y="243" width="64" height="64" rx="8" fill="#D9D9D9"/>
<rect x="1053" y="243" width="64" height="64" rx="8" fill="#D9D9D9"/>
<rect x="733" y="323" width="64" height="64" rx="8" fill="#D9D9D9"/>
<rect x="893" y="323" width="64" height="64" rx="8" fill="#D9D9D9"/>
<rect x="813" y="323" width="64" height="64" rx="8" fill="#D9D9D9"/>
<rect x="973" y="323" width="64" height="64" rx="8" fill="#D9D9D9"/>
<rect x="1053" y="323" width="64" height="64" rx="8" fill="#D9D9D9"/>
<rect x="733" y="403" width="64" height="64" rx="8" fill="#D9D9D9"/>
<rect x="893" y="403" width="64" height="64" rx="8" fill="#D9D9D9"/>
<rect x="813" y="403" width="64" height="64" rx="8" fill="#D9D9D9"/>
<rect x="973" y="403" width="64" height="64" rx="8" fill="#D9D9D9"/>
<rect x="1053" y="403" width="64" height="64" rx="8" fill="#D9D9D9"/>
<rect x="733" y="483" width="64" height="64" rx="8" fill="#D9D9D9"/>
<rect x="893" y="483" width="64" height="64" rx="8" fill="#D9D9D9"/>
<rect x="813" y="483" width="64" height="64" rx="8" fill="#D9D9D9"/>
<rect x="973" y="483" width="64" height="64" rx="8" fill="#D9D9D9"/>
<rect x="1053" y="483" width="64" height="64" rx="8" fill="#D9D9D9"/>
</svg>
